Adsworth-72PT G0 XT1.ufo
<glyph name="exclam" format="2">
  <advance width="652"/>
  <unicode hex="0021"/>
  <outline>
    <contour>
      <point x="339" y="362" type="line"/>
      <point x="339" y="1500" type="line"/>
      <point x="313" y="1500" type="line"/>
      <point x="313" y="362" type="line"/>
    </contour>
    <contour>
      <point x="327" y="3.0" type="line" smooth="yes"/>
      <point x="326.0" y="3.0"/>
      <point x="327.0" y="25.0"/>
      <point x="327" y="57.0" type="qcurve" smooth="yes"/>
      <point x="327" y="81.0" type="line" smooth="yes"/>
      <point x="327.0" y="117.0"/>
      <point x="328" y="136.0"/>
      <point x="327" y="136.0" type="qcurve" smooth="yes"/>
      <point x="327" y="136.0" type="line" smooth="yes"/>
      <point x="326" y="136.0"/>
      <point x="325.0" y="117.0"/>
      <point x="325.0" y="81.0" type="qcurve" smooth="yes"/>
      <point x="325.0" y="57.0" type="line" smooth="yes"/>
      <point x="325.0" y="21.0"/>
      <point x="326" y="3.0"/>
      <point x="327" y="3.0" type="qcurve" smooth="yes"/>
    </contour>
  </outline>
</glyph>
<glyph name="quotedbl" format="2">
  <advance width="934"/>
  <unicode hex="0022"/>
  <outline>
    <contour>
      <point x="280" y="962" type="line"/>
      <point x="280" y="1500" type="line"/>
      <point x="260" y="1500" type="line"/>
      <point x="260" y="962" type="line"/>
    </contour>
    <contour>
      <point x="674" y="962" type="line"/>
      <point x="674" y="1500" type="line"/>
      <point x="654" y="1500" type="line"/>
      <point x="654" y="962" type="line"/>
    </contour>
  </outline>
</glyph>
<glyph name="percent" format="2">
  <advance width="2163"/>
  <unicode hex="0025"/>
  <outline>
    <contour>
      <point x="526" y="691.0" type="line" smooth="yes"/>
      <point x="330" y="691.0"/>
      <point x="117" y="902.0"/>
      <point x="117" y="1088.0" type="qcurve" smooth="yes"/>
      <point x="117" y="1114.0" type="line" smooth="yes"/>
      <point x="117" y="1300.0"/>
      <point x="338" y="1520.0"/>
      <point x="524" y="1520.0" type="qcurve" smooth="yes"/>
      <point x="528" y="1520.0" type="line" smooth="yes"/>
      <point x="727" y="1520.0"/>
      <point x="945" y="1300.0"/>
      <point x="945" y="1114.0" type="qcurve" smooth="yes"/>
      <point x="945" y="1088.0" type="line" smooth="yes"/>
      <point x="945" y="902.0"/>
      <point x="723" y="691.0"/>
      <point x="531" y="691.0" type="qcurve" smooth="yes"/>
    </contour>
    <contour>
      <point x="527.0" y="675" type="line" smooth="yes"/>
      <point x="737.0" y="675"/>
      <point x="969.0" y="897"/>
      <point x="969.0" y="1085" type="qcurve" smooth="yes"/>
      <point x="969.0" y="1115" type="line" smooth="yes"/>
      <point x="969.0" y="1305"/>
      <point x="741.0" y="1536"/>
      <point x="527.0" y="1536" type="qcurve" smooth="yes"/>
      <point x="521.0" y="1536" type="line" smooth="yes"/>
      <point x="317.0" y="1536"/>
      <point x="91.0" y="1305"/>
      <point x="91.0" y="1115" type="qcurve" smooth="yes"/>
      <point x="91.0" y="1085" type="line" smooth="yes"/>
      <point x="91.0" y="897"/>
      <point x="312.0" y="675"/>
      <point x="521.0" y="675" type="qcurve" smooth="yes"/>
    </contour>
    <contour>
      <point x="1630" y="-19.0" type="line" smooth="yes"/>
      <point x="1434" y="-19.0"/>
      <point x="1221" y="192.0"/>
      <point x="1221" y="378.0" type="qcurve" smooth="yes"/>
      <point x="1221" y="404.0" type="line" smooth="yes"/>
      <point x="1221" y="590.0"/>
      <point x="1442" y="810.0"/>
      <point x="1628" y="810.0" type="qcurve" smooth="yes"/>
      <point x="1632" y="810.0" type="line" smooth="yes"/>
      <point x="1831" y="810.0"/>
      <point x="2049" y="590.0"/>
      <point x="2049" y="404.0" type="qcurve" smooth="yes"/>
      <point x="2049" y="378.0" type="line" smooth="yes"/>
      <point x="2049" y="192.0"/>
      <point x="1827" y="-19.0"/>
      <point x="1635" y="-19.0" type="qcurve" smooth="yes"/>
    </contour>
    <contour>
      <point x="1631.0" y="-35" type="line" smooth="yes"/>
      <point x="1841.0" y="-35"/>
      <point x="2073.0" y="187"/>
      <point x="2073.0" y="375" type="qcurve" smooth="yes"/>
      <point x="2073.0" y="405" type="line" smooth="yes"/>
      <point x="2073.0" y="595"/>
      <point x="1845.0" y="826"/>
      <point x="1631.0" y="826" type="qcurve" smooth="yes"/>
      <point x="1625.0" y="826" type="line" smooth="yes"/>
      <point x="1421.0" y="826"/>
      <point x="1195.0" y="595"/>
      <point x="1195.0" y="405" type="qcurve" smooth="yes"/>
      <point x="1195.0" y="375" type="line" smooth="yes"/>
      <point x="1195.0" y="187"/>
      <point x="1416.0" y="-35"/>
      <point x="1625.0" y="-35" type="qcurve" smooth="yes"/>
    </contour>
    <contour>
      <point x="554" y="0" type="line"/>
      <point x="1594" y="1500" type="line"/>
      <point x="1581" y="1500" type="line"/>
      <point x="541" y="0" type="line"/>
    </contour>
  </outline>
</glyph>
<glyph name="parenleft" format="2">
  <advance width="858"/>
  <unicode hex="0028"/>
  <outline>
    <contour>
      <point x="874" y="-311" type="line"/>
      <point x="172" y="49.0"/>
      <point x="172" y="1144.0"/>
      <point x="869" y="1525" type="qcurve"/>
      <point x="769" y="1443" type="line"/>
      <point x="84" y="1052.0"/>
      <point x="117" y="137.0"/>
      <point x="777" y="-230" type="qcurve"/>
    </contour>
  </outline>
</glyph>
<glyph name="parenright" format="2">
  <advance width="858"/>
  <unicode hex="0029"/>
  <outline>
    <contour>
      <point x="-16" y="-311" type="qcurve"/>
      <point x="81" y="-230" type="line"/>
      <point x="741" y="137"/>
      <point x="774" y="1052"/>
      <point x="89" y="1443" type="qcurve"/>
      <point x="-11" y="1525" type="line"/>
      <point x="686" y="1144"/>
      <point x="686" y="49"/>
    </contour>
  </outline>
</glyph>
<glyph name="plus" format="2">
  <advance width="1420"/>
  <unicode hex="002B"/>
  <outline>
    <contour>
      <point x="1394" y="782" type="line"/>
      <point x="34" y="782" type="line"/>
      <point x="34" y="767" type="line"/>
      <point x="1394" y="767" type="line"/>
    </contour>
    <contour>
      <point x="711.0" y="1392.0" type="line"/>
      <point x="711.0" y="132.0" type="line"/>
      <point x="718.0" y="132.0" type="line"/>
      <point x="718.0" y="1392.0" type="line"/>
    </contour>
  </outline>
</glyph>
<glyph name="slash" format="2">
  <advance width="892"/>
  <unicode hex="002F"/>
  <outline>
    <contour>
      <point x="-54" y="0" type="line"/>
      <point x="966" y="1500" type="line"/>
      <point x="962" y="1500" type="line"/>
      <point x="-58" y="0" type="line"/>
    </contour>
  </outline>
</glyph>
<glyph name="one" format="2">
  <advance width="462"/>
  <unicode hex="0031"/>
  <outline>
    <contour>
      <point x="246.0" y="0.0" type="line"/>
      <point x="246.0" y="1500.0" type="line"/>
      <point x="216.0" y="1500.0" type="line"/>
      <point x="216.0" y="0.0" type="line"/>
    </contour>
  </outline>
</glyph>
<glyph name="three" format="2">
  <advance width="1309"/>
  <unicode hex="0033"/>
  <outline>
    <contour>
      <point x="748" y="848" type="qcurve" smooth="yes"/>
      <point x="439" y="849.0" type="line"/>
      <point x="439" y="824.0" type="line"/>
      <point x="762" y="824.0" type="line" smooth="yes"/>
      <point x="968.0" y="824.0"/>
      <point x="1208.0" y="999.0"/>
      <point x="1208.0" y="1151.0" type="qcurve" smooth="yes"/>
      <point x="1208.0" y="1183.0" type="line" smooth="yes"/>
      <point x="1208" y="1327"/>
      <point x="937.0" y="1520.0"/>
      <point x="661.0" y="1520.0" type="qcurve"/>
      <point x="656.0" y="1520.0" type="line"/>
      <point x="359.0" y="1520.0"/>
      <point x="72" y="1273"/>
      <point x="65.0" y="1124" type="qcurve" smooth="yes"/>
      <point x="64.0" y="1106.0" type="line"/>
      <point x="85" y="1104.0" type="line"/>
      <point x="89" y="1152.0" type="line" smooth="yes"/>
      <point x="97" y="1305.0"/>
      <point x="372.0" y="1515.0"/>
      <point x="652" y="1515.0" type="qcurve"/>
      <point x="654" y="1515.0" type="line"/>
      <point x="925.0" y="1515.0"/>
      <point x="1196.0" y="1332.0"/>
      <point x="1196" y="1167.0" type="qcurve" smooth="yes"/>
      <point x="1196" y="1150.0" type="line" smooth="yes"/>
      <point x="1196.0" y="980.0"/>
      <point x="989" y="841.0"/>
      <point x="877" y="835.0" type="qcurve"/>
      <point x="1002" y="814.0"/>
      <point x="1260.0" y="620.0"/>
      <point x="1260.0" y="446.0" type="qcurve" smooth="yes"/>
      <point x="1260.0" y="438.0" type="line" smooth="yes"/>
      <point x="1260.0" y="229.0"/>
      <point x="943.0" y="-41.0"/>
      <point x="696" y="-41" type="qcurve"/>
      <point x="688" y="-41.0" type="line"/>
      <point x="374.0" y="-41"/>
      <point x="64" y="219.0"/>
      <point x="50" y="385.0" type="qcurve" smooth="yes"/>
      <point x="46" y="431.0" type="line"/>
      <point x="24.0" y="431.0" type="line"/>
      <point x="26.0" y="367" type="line" smooth="yes"/>
      <point x="35.0" y="197"/>
      <point x="378.0" y="-56.0"/>
      <point x="653.0" y="-56.0" type="qcurve"/>
      <point x="670.0" y="-56" type="line"/>
      <point x="969.0" y="-56.0"/>
      <point x="1282.0" y="243.0"/>
      <point x="1282.0" y="443.0" type="qcurve" smooth="yes"/>
      <point x="1282.0" y="428.0" type="line" smooth="yes"/>
      <point x="1282.0" y="601.0"/>
      <point x="975" y="847"/>
    </contour>
  </outline>
</glyph>
<glyph name="five" format="2">
  <advance width="1332"/>
  <unicode hex="0035"/>
  <outline>
    <contour>
      <point x="715" y="978" type="line" smooth="yes"/>
      <point x="995.0" y="978.0"/>
      <point x="1273.0" y="732.0"/>
      <point x="1273" y="496.0" type="qcurve" smooth="yes"/>
      <point x="1273.0" y="484.0" type="line" smooth="yes"/>
      <point x="1273.0" y="255.0"/>
      <point x="959.0" y="-26.0"/>
      <point x="667" y="-26.0" type="qcurve" smooth="yes"/>
      <point x="649" y="-26.0" type="line" smooth="yes"/>
      <point x="357.0" y="-26"/>
      <point x="74" y="195.0"/>
      <point x="57" y="352.0" type="qcurve" smooth="yes"/>
      <point x="52.0" y="404.0" type="line"/>
      <point x="21" y="404.0" type="line"/>
      <point x="21.0" y="345.0" type="line" smooth="yes"/>
      <point x="19.0" y="168.0"/>
      <point x="372.0" y="-55"/>
      <point x="649" y="-55.0" type="qcurve" smooth="yes"/>
      <point x="661" y="-55.0" type="line" smooth="yes"/>
      <point x="934.0" y="-55.0"/>
      <point x="1319.0" y="224.0"/>
      <point x="1319.0" y="480.0" type="qcurve" smooth="yes"/>
      <point x="1319" y="503.0" type="line" smooth="yes"/>
      <point x="1319.0" y="759.0"/>
      <point x="959.0" y="1007.0"/>
      <point x="703" y="1007.0" type="qcurve" smooth="yes"/>
      <point x="676" y="1007.0" type="line" smooth="yes"/>
      <point x="493.0" y="1007.0"/>
      <point x="181" y="855.0"/>
      <point x="106" y="741.0" type="qcurve"/>
      <point x="122" y="742.0" type="line"/>
      <point x="184" y="1500.0" type="line"/>
      <point x="1126" y="1500.0" type="line"/>
      <point x="1126" y="1525.0" type="line"/>
      <point x="157" y="1525" type="line"/>
      <point x="82" y="729" type="line"/>
      <point x="122" y="798"/>
      <point x="475.0" y="978.0"/>
      <point x="687" y="978.0" type="qcurve" smooth="yes"/>
    </contour>
  </outline>
</glyph>
<glyph name="colon" format="2">
  <advance width="920"/>
  <unicode hex="003A"/>
  <outline>
    <contour>
      <point x="460" y="3" type="line" smooth="yes"/>
      <point x="465" y="3"/>
      <point x="468.0" y="32.0"/>
      <point x="468" y="63" type="qcurve" smooth="yes"/>
      <point x="468" y="89" type="line" smooth="yes"/>
      <point x="468" y="120"/>
      <point x="467" y="150"/>
      <point x="461" y="150" type="qcurve" smooth="yes"/>
      <point x="459" y="150" type="line" smooth="yes"/>
      <point x="454" y="150"/>
      <point x="451" y="120"/>
      <point x="451" y="89" type="qcurve" smooth="yes"/>
      <point x="451" y="63" type="line" smooth="yes"/>
      <point x="451.0" y="33.0"/>
      <point x="453" y="3"/>
      <point x="459" y="3" type="qcurve" smooth="yes"/>
    </contour>
    <contour>
      <point x="460" y="816" type="line" smooth="yes"/>
      <point x="465" y="816"/>
      <point x="468.0" y="845.0"/>
      <point x="468" y="876" type="qcurve" smooth="yes"/>
      <point x="468" y="902" type="line" smooth="yes"/>
      <point x="468" y="933"/>
      <point x="467" y="963"/>
      <point x="461" y="963" type="qcurve" smooth="yes"/>
      <point x="459" y="963" type="line" smooth="yes"/>
      <point x="454" y="963"/>
      <point x="451" y="933"/>
      <point x="451" y="902" type="qcurve" smooth="yes"/>
      <point x="451" y="876" type="line" smooth="yes"/>
      <point x="451.0" y="846.0"/>
      <point x="453" y="816"/>
      <point x="459" y="816" type="qcurve" smooth="yes"/>
    </contour>
  </outline>
</glyph>
<glyph name="equal" format="2">
  <advance width="1420"/>
  <unicode hex="003D"/>
  <outline>
    <contour>
      <point x="1366" y="533" type="line"/>
      <point x="60" y="533" type="line"/>
      <point x="60" y="515" type="line"/>
      <point x="1367" y="515" type="line"/>
    </contour>
    <contour>
      <point x="1367" y="945" type="line"/>
      <point x="60" y="945" type="line"/>
      <point x="60" y="925" type="line"/>
      <point x="1367" y="925" type="line"/>
    </contour>
  </outline>
</glyph>
<glyph name="greater" format="2">
  <advance width="1420"/>
  <unicode hex="003E"/>
  <outline>
    <contour>
      <point x="1352.0" y="721.0" type="line"/>
      <point x="1352.0" y="750.0" type="line"/>
      <point x="102.0" y="274.0" type="line"/>
      <point x="102.0" y="239.0" type="line"/>
      <point x="1341.0" y="721.0" type="line"/>
      <point x="102.0" y="1196.0" type="line"/>
      <point x="102.0" y="1170.0" type="line"/>
    </contour>
  </outline>
</glyph>
<glyph name="A" format="2">
  <advance width="1590"/>
  <unicode hex="0041"/>
  <outline>
    <contour>
      <point x="1336" y="509" type="line"/>
      <point x="258" y="509" type="line"/>
      <point x="269" y="537" type="line"/>
      <point x="1319" y="537" type="line"/>
    </contour>
    <contour>
      <point x="798" y="1520" type="line"/>
      <point x="1630" y="0" type="line"/>
      <point x="1594" y="0" type="line"/>
      <point x="794" y="1466" type="line"/>
      <point x="790.0" y="1467.0" type="line"/>
      <point x="-5.0" y="0.0" type="line"/>
      <point x="-40" y="0" type="line"/>
      <point x="787" y="1519" type="line"/>
    </contour>
  </outline>
</glyph>
<glyph name="B" format="2">
  <advance width="1692"/>
  <unicode hex="0042"/>
  <outline>
    <contour>
      <point x="266" y="0" type="line"/>
      <point x="266" y="1500" type="line"/>
      <point x="296" y="1500" type="line"/>
      <point x="296" y="0" type="line"/>
    </contour>
    <contour>
      <point x="1073.0" y="816" type="line"/>
      <point x="1329.0" y="816"/>
      <point x="1586" y="605"/>
      <point x="1586.0" y="435" type="qcurve" smooth="yes"/>
      <point x="1586.0" y="410" type="line" smooth="yes"/>
      <point x="1586" y="222"/>
      <point x="1337.0" y="0.0"/>
      <point x="1107" y="0" type="qcurve" smooth="yes"/>
      <point x="282" y="0" type="line"/>
      <point x="282" y="30.0" type="line"/>
      <point x="1179" y="30.0" type="line" smooth="yes"/>
      <point x="1310.0" y="30.0"/>
      <point x="1554" y="231"/>
      <point x="1554.0" y="418" type="qcurve" smooth="yes"/>
      <point x="1554" y="429.0" type="line" smooth="yes"/>
      <point x="1554" y="598"/>
      <point x="1304.0" y="786.0"/>
      <point x="1161" y="786.0" type="qcurve" smooth="yes"/>
      <point x="282" y="786.0" type="line"/>
      <point x="282.0" y="816" type="line"/>
      <point x="1115" y="816.0" type="line" smooth="yes"/>
      <point x="1261.0" y="816.0"/>
      <point x="1444" y="980"/>
      <point x="1444.0" y="1147" type="qcurve" smooth="yes"/>
      <point x="1444.0" y="1156" type="line" smooth="yes"/>
      <point x="1444" y="1314"/>
      <point x="1258.0" y="1470.0"/>
      <point x="1116" y="1470.0" type="qcurve" smooth="yes"/>
      <point x="282" y="1470.0" type="line"/>
      <point x="282" y="1500" type="line"/>
      <point x="1092" y="1500.0" type="line" smooth="yes"/>
      <point x="1279.0" y="1500.0"/>
      <point x="1476" y="1325"/>
      <point x="1476.0" y="1157" type="qcurve" smooth="yes"/>
      <point x="1476.0" y="1142" type="line" smooth="yes"/>
      <point x="1476" y="971"/>
      <point x="1274.0" y="786"/>
      <point x="1045.0" y="786" type="qcurve"/>
    </contour>
  </outline>
</glyph>
<glyph name="C" format="2">
  <advance width="1958"/>
  <unicode hex="0043"/>
  <outline>
    <contour>
      <point x="1042" y="-30.0" type="line" smooth="yes"/>
      <point x="1464" y="-30"/>
      <point x="1879" y="320"/>
      <point x="1879" y="576.0" type="qcurve" smooth="yes"/>
      <point x="1879" y="588.0" type="line"/>
      <point x="1849" y="588.0" type="line"/>
      <point x="1849" y="577.0" type="line" smooth="yes"/>
      <point x="1849.0" y="334.0"/>
      <point x="1433" y="-2"/>
      <point x="1052" y="-2.0" type="qcurve" smooth="yes"/>
      <point x="1042" y="-2.0" type="line" smooth="yes"/>
      <point x="603" y="-2"/>
      <point x="142" y="368"/>
      <point x="142.0" y="746.0" type="qcurve" smooth="yes"/>
      <point x="142.0" y="764.0" type="line" smooth="yes"/>
      <point x="142" y="1129"/>
      <point x="642" y="1507"/>
      <point x="1035" y="1507.0" type="qcurve" smooth="yes"/>
      <point x="1039" y="1507.0" type="line" smooth="yes"/>
      <point x="1405" y="1507"/>
      <point x="1819.0" y="1243.0"/>
      <point x="1851" y="971.0" type="qcurve" smooth="yes"/>
      <point x="1855" y="937.0" type="line"/>
      <point x="1887" y="940.0" type="line"/>
      <point x="1883" y="971.0" type="line" smooth="yes"/>
      <point x="1845" y="1262"/>
      <point x="1419" y="1535"/>
      <point x="1042" y="1535.0" type="qcurve" smooth="yes"/>
      <point x="1031" y="1535.0" type="line" smooth="yes"/>
      <point x="622" y="1535"/>
      <point x="116" y="1150.0"/>
      <point x="116" y="755.0" type="qcurve" smooth="yes"/>
      <point x="116" y="728.0" type="line" smooth="yes"/>
      <point x="116" y="348.0"/>
      <point x="581" y="-30"/>
      <point x="1012" y="-30.0" type="qcurve" smooth="yes"/>
    </contour>
  </outline>
</glyph>
<glyph name="D" format="2">
  <advance width="1819"/>
  <unicode hex="0044"/>
  <outline>
    <contour>
      <point x="266.0" y="0.0" type="line"/>
      <point x="266.0" y="1500.0" type="line"/>
      <point x="296.0" y="1500.0" type="line"/>
      <point x="296.0" y="0.0" type="line"/>
    </contour>
    <contour>
      <point x="991.0" y="28" type="line" smooth="yes"/>
      <point x="1272" y="28"/>
      <point x="1676.0" y="420.0"/>
      <point x="1676.0" y="777" type="qcurve" smooth="yes"/>
      <point x="1676.0" y="786" type="line" smooth="yes"/>
      <point x="1676.0" y="1073.0"/>
      <point x="1290.0" y="1472.0"/>
      <point x="985" y="1472" type="qcurve" smooth="yes"/>
      <point x="282.0" y="1472" type="line"/>
      <point x="282.0" y="1500" type="line"/>
      <point x="1006.0" y="1500" type="line" smooth="yes"/>
      <point x="1306" y="1500"/>
      <point x="1708.0" y="1082.0"/>
      <point x="1708.0" y="794" type="qcurve" smooth="yes"/>
      <point x="1708.0" y="770" type="line" smooth="yes"/>
      <point x="1708.0" y="415.0"/>
      <point x="1291.0" y="0.0"/>
      <point x="1009.0" y="0" type="qcurve" smooth="yes"/>
      <point x="282.0" y="0" type="line"/>
      <point x="282.0" y="28" type="line"/>
    </contour>
  </outline>
</glyph>
<glyph name="E" format="2">
  <advance width="1531"/>
  <unicode hex="0045"/>
  <outline>
    <contour>
      <point x="266" y="0" type="line"/>
      <point x="266" y="1500" type="line"/>
      <point x="296" y="1500" type="line"/>
      <point x="296" y="0" type="line"/>
    </contour>
    <contour>
      <point x="1316" y="779" type="line"/>
      <point x="281" y="779" type="line"/>
      <point x="281" y="809" type="line"/>
      <point x="1316" y="809" type="line"/>
    </contour>
    <contour>
      <point x="1476" y="1470" type="line"/>
      <point x="281" y="1470" type="line"/>
      <point x="281" y="1500" type="line"/>
      <point x="1476" y="1500" type="line"/>
    </contour>
    <contour>
      <point x="1496" y="0" type="line"/>
      <point x="281" y="0" type="line"/>
      <point x="281" y="30" type="line"/>
      <point x="1496" y="30" type="line"/>
    </contour>
  </outline>
</glyph>
<glyph name="F" format="2">
  <advance width="1466"/>
  <unicode hex="0046"/>
  <outline>
    <contour>
      <point x="266" y="0" type="line"/>
      <point x="266" y="1500" type="line"/>
      <point x="296" y="1500" type="line"/>
      <point x="296" y="0" type="line"/>
    </contour>
    <contour>
      <point x="1256" y="785" type="line"/>
      <point x="276" y="785" type="line"/>
      <point x="276" y="815" type="line"/>
      <point x="1256" y="815" type="line"/>
    </contour>
    <contour>
      <point x="1436" y="1470" type="line"/>
      <point x="276" y="1470" type="line"/>
      <point x="276" y="1500" type="line"/>
      <point x="1436" y="1500" type="line"/>
    </contour>
  </outline>
</glyph>
<glyph name="G" format="2">
  <advance width="1981"/>
  <unicode hex="0047"/>
  <outline>
    <contour>
      <point x="1051" y="1.0" type="line" smooth="yes"/>
      <point x="1448.0" y="1.0"/>
      <point x="1859.0" y="317.0"/>
      <point x="1859" y="620" type="qcurve" smooth="yes"/>
      <point x="1859" y="664.0" type="line"/>
      <point x="1076" y="664.0" type="line"/>
      <point x="1076" y="694.0" type="line"/>
      <point x="1892" y="694.0" type="line"/>
      <point x="1892.0" y="610" type="line" smooth="yes"/>
      <point x="1892" y="302"/>
      <point x="1467" y="-30.0"/>
      <point x="1058" y="-30.0" type="qcurve" smooth="yes"/>
      <point x="1045" y="-30.0" type="line" smooth="yes"/>
      <point x="600.0" y="-30"/>
      <point x="112" y="353.0"/>
      <point x="112.0" y="722.0" type="qcurve" smooth="yes"/>
      <point x="112.0" y="748.0" type="line" smooth="yes"/>
      <point x="112" y="1127.0"/>
      <point x="638.0" y="1535.0"/>
      <point x="1036" y="1535.0" type="qcurve" smooth="yes"/>
      <point x="1050" y="1535.0" type="line" smooth="yes"/>
      <point x="1417" y="1535"/>
      <point x="1815" y="1279"/>
      <point x="1846" y="1057.0" type="qcurve" smooth="yes"/>
      <point x="1850" y="1028.0" type="line"/>
      <point x="1815" y="1028.0" type="line"/>
      <point x="1812" y="1054.0" type="line" smooth="yes"/>
      <point x="1789" y="1253"/>
      <point x="1408.0" y="1504.0"/>
      <point x="1055" y="1504.0" type="qcurve" smooth="yes"/>
      <point x="1039" y="1504.0" type="line" smooth="yes"/>
      <point x="654" y="1504"/>
      <point x="144" y="1112.0"/>
      <point x="144" y="742.0" type="qcurve" smooth="yes"/>
      <point x="144" y="728.0" type="line" smooth="yes"/>
      <point x="144" y="373.0"/>
      <point x="618.0" y="1"/>
      <point x="1041" y="1.0" type="qcurve" smooth="yes"/>
    </contour>
  </outline>
</glyph>
<glyph name="H" format="2">
  <advance width="1942"/>
  <unicode hex="0048"/>
  <outline>
    <contour>
      <point x="296" y="0" type="line"/>
      <point x="296" y="1500" type="line"/>
      <point x="266" y="1500" type="line"/>
      <point x="266" y="0" type="line"/>
    </contour>
    <contour>
      <point x="1676" y="0" type="line"/>
      <point x="1676" y="1500" type="line"/>
      <point x="1646" y="1500" type="line"/>
      <point x="1646" y="0" type="line"/>
    </contour>
    <contour>
      <point x="1661" y="818" type="line"/>
      <point x="280" y="818" type="line"/>
      <point x="280" y="790" type="line"/>
      <point x="1661" y="790" type="line"/>
    </contour>
  </outline>
</glyph>
<glyph name="I" format="2">
  <advance width="382"/>
  <unicode hex="0049"/>
  <outline>
    <contour>
      <point x="203" y="0" type="line"/>
      <point x="203" y="1500" type="line"/>
      <point x="181" y="1500" type="line"/>
      <point x="181" y="0" type="line"/>
    </contour>
    <contour>
      <point x="-19" y="0" type="line"/>
      <point x="371" y="0" type="line"/>
      <point x="371" y="-16" type="line"/>
      <point x="-19" y="-16" type="line"/>
    </contour>
    <contour>
      <point x="-19" y="1516" type="line"/>
      <point x="371" y="1516" type="line"/>
      <point x="371" y="1500" type="line"/>
      <point x="-19" y="1500" type="line"/>
    </contour>
  </outline>
</glyph>
<glyph name="J" format="2">
  <advance width="1355"/>
  <unicode hex="004A"/>
  <outline>
    <contour>
      <point x="1075.0" y="476.0" type="line" smooth="yes"/>
      <point x="1075.0" y="245.0"/>
      <point x="820.0" y="-1.0"/>
      <point x="577" y="-1" type="qcurve" smooth="yes"/>
      <point x="560" y="-1.0" type="line" smooth="yes"/>
      <point x="308.0" y="-1"/>
      <point x="78" y="186"/>
      <point x="55" y="379" type="qcurve" smooth="yes"/>
      <point x="53" y="396" type="line"/>
      <point x="26.0" y="396.0" type="line"/>
      <point x="28" y="371" type="line" smooth="yes"/>
      <point x="44" y="170"/>
      <point x="304.0" y="-30"/>
      <point x="560" y="-30.0" type="qcurve" smooth="yes"/>
      <point x="570" y="-30" type="line" smooth="yes"/>
      <point x="840.0" y="-30.0"/>
      <point x="1105.0" y="226.0"/>
      <point x="1105.0" y="446.0" type="qcurve" smooth="yes"/>
      <point x="1105" y="1500" type="line"/>
      <point x="1075" y="1500.0" type="line"/>
    </contour>
  </outline>
</glyph>
<glyph name="K" format="2">
  <advance width="1811"/>
  <unicode hex="004B"/>
  <outline>
    <contour>
      <point x="266" y="0" type="line"/>
      <point x="266" y="1500" type="line"/>
      <point x="296" y="1500" type="line"/>
      <point x="296" y="0" type="line"/>
    </contour>
    <contour>
      <point x="831" y="958" type="line"/>
      <point x="858" y="979" type="line"/>
      <point x="1744" y="0" type="line"/>
      <point x="1699" y="0" type="line"/>
    </contour>
    <contour>
      <point x="280" y="575" type="line"/>
      <point x="592" y="807" type="line"/>
      <point x="1523" y="1500" type="line"/>
      <point x="1568" y="1500" type="line"/>
      <point x="856" y="968" type="line"/>
      <point x="844" y="959" type="line"/>
      <point x="280" y="537" type="line"/>
    </contour>
  </outline>
</glyph>
<glyph name="L" format="2">
  <advance width="1450"/>
  <unicode hex="004C"/>
  <outline>
    <contour>
      <point x="266" y="0" type="line"/>
      <point x="266" y="1500" type="line"/>
      <point x="296" y="1500" type="line"/>
      <point x="296" y="0" type="line"/>
    </contour>
    <contour>
      <point x="1432" y="0" type="line"/>
      <point x="280" y="0" type="line"/>
      <point x="280" y="30" type="line"/>
      <point x="1432" y="30" type="line"/>
    </contour>
  </outline>
</glyph>
<glyph name="M" format="2">
  <advance width="2504"/>
  <unicode hex="004D"/>
  <outline>
    <contour>
      <point x="266" y="0" type="line"/>
      <point x="266" y="1500" type="line"/>
      <point x="303" y="1500" type="line"/>
      <point x="1252" y="43" type="line"/>
      <point x="1255" y="43" type="line"/>
      <point x="2199" y="1500" type="line"/>
      <point x="2238" y="1500" type="line"/>
      <point x="2238" y="0" type="line"/>
      <point x="2208" y="0" type="line"/>
      <point x="2208" y="1452" type="line"/>
      <point x="1268" y="0" type="line"/>
      <point x="1238" y="0" type="line"/>
      <point x="296" y="1452" type="line"/>
      <point x="296" y="0" type="line"/>
    </contour>
  </outline>
</glyph>
<glyph name="N" format="2">
  <advance width="1808"/>
  <unicode hex="004E"/>
  <outline>
    <contour>
      <point x="244" y="0" type="line"/>
      <point x="244" y="1500" type="line"/>
      <point x="212" y="1500" type="line"/>
      <point x="1590" y="-92" type="line"/>
      <point x="1590" y="1500" type="line"/>
      <point x="1564" y="1500" type="line"/>
      <point x="1564" y="0" type="line"/>
      <point x="1581" y="0" type="line"/>
      <point x="1566" y="7" type="line"/>
      <point x="218" y="1628" type="line"/>
      <point x="218" y="0" type="line"/>
    </contour>
  </outline>
</glyph>
<glyph name="O" format="2">
  <advance width="2102"/>
  <unicode hex="004F"/>
  <outline>
    <contour>
      <point x="1041" y="-2.0" type="line" smooth="yes"/>
      <point x="616.0" y="-2"/>
      <point x="144" y="381"/>
      <point x="144" y="729" type="qcurve" smooth="yes"/>
      <point x="144" y="740" type="line" smooth="yes"/>
      <point x="144" y="1112"/>
      <point x="644.0" y="1507.0"/>
      <point x="1046" y="1507.0" type="qcurve" smooth="yes"/>
      <point x="1049" y="1507.0" type="line" smooth="yes"/>
      <point x="1446.0" y="1507.0"/>
      <point x="1958" y="1115"/>
      <point x="1958.0" y="746.0" type="qcurve" smooth="yes"/>
      <point x="1958.0" y="726.0" type="line" smooth="yes"/>
      <point x="1958" y="371"/>
      <point x="1439.0" y="-2.0"/>
      <point x="1046" y="-2.0" type="qcurve" smooth="yes"/>
    </contour>
    <contour>
      <point x="1049" y="-30" type="line" smooth="yes"/>
      <point x="1460.0" y="-30.0"/>
      <point x="1990" y="361"/>
      <point x="1990.0" y="714.0" type="qcurve" smooth="yes"/>
      <point x="1990.0" y="754.0" type="line" smooth="yes"/>
      <point x="1990" y="1129"/>
      <point x="1465.0" y="1535.0"/>
      <point x="1050" y="1535.0" type="qcurve" smooth="yes"/>
      <point x="1045" y="1535.0" type="line" smooth="yes"/>
      <point x="630.0" y="1535.0"/>
      <point x="112" y="1121"/>
      <point x="112" y="754" type="qcurve" smooth="yes"/>
      <point x="112" y="718" type="line" smooth="yes"/>
      <point x="112" y="373"/>
      <point x="592.0" y="-30"/>
      <point x="1039.0" y="-30.0" type="qcurve" smooth="yes"/>
    </contour>
  </outline>
</glyph>
<glyph name="P" format="2">
  <advance width="1375"/>
  <unicode hex="0050"/>
  <outline>
    <contour>
      <point x="244" y="0" type="line"/>
      <point x="244" y="1500" type="line"/>
      <point x="213" y="1500" type="line"/>
      <point x="213" y="0" type="line"/>
    </contour>
    <contour>
      <point x="793.0" y="687" type="qcurve" smooth="yes"/>
      <point x="222.0" y="687" type="line"/>
      <point x="222.0" y="670" type="line"/>
      <point x="851.0" y="670" type="line" smooth="yes"/>
      <point x="1071.0" y="670.0"/>
      <point x="1343" y="849"/>
      <point x="1343.0" y="1114" type="qcurve" smooth="yes"/>
      <point x="1343.0" y="1120" type="line" smooth="yes"/>
      <point x="1343" y="1321"/>
      <point x="1107.0" y="1523.0"/>
      <point x="902.0" y="1523" type="qcurve" smooth="yes"/>
      <point x="222.0" y="1523" type="line"/>
      <point x="222" y="1500" type="line"/>
      <point x="877.0" y="1500.0" type="line" smooth="yes"/>
      <point x="1075.0" y="1500.0"/>
      <point x="1317" y="1300"/>
      <point x="1317.0" y="1118" type="qcurve" smooth="yes"/>
      <point x="1317.0" y="1104" type="line" smooth="yes"/>
      <point x="1317" y="866"/>
      <point x="1078.0" y="686.0"/>
    </contour>
  </outline>
</glyph>
<glyph name="Q" format="2">
  <advance width="2102"/>
  <unicode hex="0051"/>
  <outline>
    <contour>
      <point x="1023" y="-15" type="line"/>
      <point x="2056" y="-105" type="line"/>
      <point x="2056" y="-70" type="line"/>
      <point x="1024" y="6" type="line"/>
    </contour>
    <contour>
      <point x="1041" y="6.0" type="line" smooth="yes"/>
      <point x="616" y="6"/>
      <point x="144" y="385"/>
      <point x="144" y="742" type="qcurve" smooth="yes"/>
      <point x="144" y="753" type="line" smooth="yes"/>
      <point x="144" y="1116"/>
      <point x="644.0" y="1507.0"/>
      <point x="1046" y="1507.0" type="qcurve" smooth="yes"/>
      <point x="1049" y="1507.0" type="line" smooth="yes"/>
      <point x="1446.0" y="1507.0"/>
      <point x="1958" y="1119"/>
      <point x="1958.0" y="747" type="qcurve" smooth="yes"/>
      <point x="1958.0" y="737" type="line" smooth="yes"/>
      <point x="1958.0" y="385.0"/>
      <point x="1430.0" y="6.0"/>
      <point x="1046" y="6.0" type="qcurve" smooth="yes"/>
    </contour>
    <contour>
      <point x="1049" y="-22" type="line" smooth="yes"/>
      <point x="1451.0" y="-22.0"/>
      <point x="1990.0" y="375.0"/>
      <point x="1990.0" y="734" type="qcurve" smooth="yes"/>
      <point x="1990.0" y="757" type="line" smooth="yes"/>
      <point x="1990" y="1133"/>
      <point x="1465.0" y="1535.0"/>
      <point x="1050" y="1535.0" type="qcurve" smooth="yes"/>
      <point x="1045" y="1535.0" type="line" smooth="yes"/>
      <point x="630.0" y="1535.0"/>
      <point x="112" y="1125"/>
      <point x="112" y="758" type="qcurve" smooth="yes"/>
      <point x="112" y="737" type="line" smooth="yes"/>
      <point x="112" y="377"/>
      <point x="592" y="-22"/>
      <point x="1039.0" y="-22.0" type="qcurve" smooth="yes"/>
    </contour>
  </outline>
</glyph>
<glyph name="R" format="2">
  <advance width="1642"/>
  <unicode hex="0052"/>
  <outline>
    <contour>
      <point x="266" y="0" type="line"/>
      <point x="266" y="1500" type="line"/>
      <point x="296" y="1500" type="line"/>
      <point x="296" y="0" type="line"/>
    </contour>
    <contour>
      <point x="979" y="671" type="qcurve" smooth="yes"/>
      <point x="282" y="671" type="line"/>
      <point x="282.0" y="701" type="line"/>
      <point x="969.0" y="701" type="line" smooth="yes"/>
      <point x="1189.0" y="701.0"/>
      <point x="1430.0" y="897.0"/>
      <point x="1430.0" y="1108" type="qcurve" smooth="yes"/>
      <point x="1430.0" y="1117" type="line" smooth="yes"/>
      <point x="1430" y="1300"/>
      <point x="1192.0" y="1470.0"/>
      <point x="989" y="1470" type="qcurve" smooth="yes"/>
      <point x="282.0" y="1470" type="line"/>
      <point x="282" y="1500" type="line"/>
      <point x="1000" y="1500" type="line" smooth="yes"/>
      <point x="1207.0" y="1500.0"/>
      <point x="1462" y="1310"/>
      <point x="1462" y="1115" type="qcurve" smooth="yes"/>
      <point x="1462.0" y="1110" type="line" smooth="yes"/>
      <point x="1462" y="891"/>
      <point x="1209.0" y="671.0"/>
    </contour>
    <contour>
      <point x="1144" y="704" type="line"/>
      <point x="1608" y="0" type="line"/>
      <point x="1572" y="0" type="line"/>
      <point x="1119" y="696" type="line"/>
    </contour>
  </outline>
</glyph>
<glyph name="S" format="2">
  <advance width="1559"/>
  <unicode hex="0053"/>
  <outline>
    <contour>
      <point x="1485.0" y="400.0" type="line" smooth="yes"/>
      <point x="1485.0" y="556.0"/>
      <point x="1150" y="787"/>
      <point x="775" y="838" type="qcurve" smooth="yes"/>
      <point x="403" y="882"/>
      <point x="136" y="1044.0"/>
      <point x="136" y="1185" type="qcurve" smooth="yes"/>
      <point x="136" y="1203" type="line" smooth="yes"/>
      <point x="136" y="1338.0"/>
      <point x="424.0" y="1513.0"/>
      <point x="755" y="1513.0" type="qcurve" smooth="yes"/>
      <point x="766" y="1513.0" type="line" smooth="yes"/>
      <point x="1130.0" y="1513.0"/>
      <point x="1422.0" y="1338.0"/>
      <point x="1406" y="1144.0" type="qcurve" smooth="yes"/>
      <point x="1406" y="1115.0" type="line"/>
      <point x="1441.0" y="1116.0" type="line"/>
      <point x="1441.0" y="1149" type="line" smooth="yes"/>
      <point x="1441.0" y="1343"/>
      <point x="1147.0" y="1524"/>
      <point x="771.0" y="1524" type="qcurve" smooth="yes"/>
      <point x="754.0" y="1524" type="line" smooth="yes"/>
      <point x="423.0" y="1524.0"/>
      <point x="107.0" y="1336.0"/>
      <point x="107.0" y="1195" type="qcurve" smooth="yes"/>
      <point x="107.0" y="1155" type="line" smooth="yes"/>
      <point x="107.0" y="1035.0"/>
      <point x="390" y="836"/>
      <point x="777" y="800" type="qcurve" smooth="yes"/>
      <point x="1168" y="768"/>
      <point x="1450.0" y="550.0"/>
      <point x="1450.0" y="378.0" type="qcurve" smooth="yes"/>
      <point x="1450.0" y="381.0" type="line" smooth="yes"/>
      <point x="1450.0" y="206"/>
      <point x="1128.0" y="-18.0"/>
      <point x="784" y="-18.0" type="qcurve" smooth="yes"/>
      <point x="780" y="-18.0" type="line" smooth="yes"/>
      <point x="409.0" y="-18"/>
      <point x="104" y="211.0"/>
      <point x="104" y="386.0" type="qcurve" smooth="yes"/>
      <point x="104" y="434.0" type="line"/>
      <point x="55.0" y="434.0" type="line"/>
      <point x="55.0" y="375" type="line" smooth="yes"/>
      <point x="55.0" y="203.0"/>
      <point x="382.0" y="-38"/>
      <point x="776.0" y="-38" type="qcurve" smooth="yes"/>
      <point x="786.0" y="-38" type="line" smooth="yes"/>
      <point x="1175.0" y="-38.0"/>
      <point x="1485.0" y="252.0"/>
      <point x="1485.0" y="388" type="qcurve" smooth="yes"/>
    </contour>
  </outline>
</glyph>
<glyph name="T" format="2">
  <advance width="1614"/>
  <unicode hex="0054"/>
  <outline>
    <contour>
      <point x="792" y="0" type="line"/>
      <point x="792" y="1480" type="line"/>
      <point x="822" y="1480" type="line"/>
      <point x="822" y="0" type="line"/>
    </contour>
    <contour>
      <point x="1612" y="1470" type="line"/>
      <point x="2" y="1470" type="line"/>
      <point x="2" y="1500" type="line"/>
      <point x="1612" y="1500" type="line"/>
    </contour>
  </outline>
</glyph>
<glyph name="U" format="2">
  <advance width="1828"/>
  <unicode hex="0055"/>
  <outline>
    <contour>
      <point x="220" y="1500" type="line"/>
      <point x="250" y="1500.0" type="line"/>
      <point x="250" y="590.0" type="line" smooth="yes"/>
      <point x="250" y="319.0"/>
      <point x="592" y="10"/>
      <point x="909" y="10.0" type="qcurve" smooth="yes"/>
      <point x="918" y="10.0" type="line" smooth="yes"/>
      <point x="1241" y="10"/>
      <point x="1578" y="314"/>
      <point x="1578" y="570.0" type="qcurve" smooth="yes"/>
      <point x="1578" y="1500.0" type="line"/>
      <point x="1608" y="1500" type="line"/>
      <point x="1608" y="588" type="line" smooth="yes"/>
      <point x="1608" y="296"/>
      <point x="1253.0" y="-19.0"/>
      <point x="920" y="-19" type="qcurve" smooth="yes"/>
      <point x="912" y="-19" type="line" smooth="yes"/>
      <point x="576.0" y="-19"/>
      <point x="220" y="304.0"/>
      <point x="220" y="602" type="qcurve" smooth="yes"/>
    </contour>
  </outline>
</glyph>
<glyph name="V" format="2">
  <advance width="1590"/>
  <unicode hex="0056"/>
  <outline>
    <contour>
      <point x="805" y="-20" type="line"/>
      <point x="-10" y="1500" type="line"/>
      <point x="25.0" y="1500.0" type="line"/>
      <point x="808.0" y="52.0" type="line"/>
      <point x="1566.0" y="1500.0" type="line"/>
      <point x="1600" y="1500" type="line"/>
      <point x="811" y="-20" type="line"/>
    </contour>
  </outline>
</glyph>
<glyph name="W" format="2">
  <advance width="2290"/>
  <unicode hex="0057"/>
  <outline>
    <contour>
      <point x="566" y="0" type="line"/>
      <point x="21" y="1500" type="line"/>
      <point x="-27" y="1500" type="line"/>
      <point x="580" y="-123" type="line"/>
      <point x="1113" y="1500" type="line"/>
      <point x="1139" y="1500" type="line"/>
      <point x="1679" y="-118" type="line"/>
      <point x="2262" y="1500" type="line"/>
      <point x="2220" y="1500" type="line"/>
      <point x="1694" y="0" type="line"/>
      <point x="1661" y="0" type="line"/>
      <point x="1131" y="1573" type="line"/>
      <point x="1127" y="1573" type="line"/>
      <point x="595" y="0" type="line"/>
    </contour>
  </outline>
</glyph>
<glyph name="X" format="2">
  <advance width="1486"/>
  <unicode hex="0058"/>
  <outline>
    <contour>
      <point x="-20" y="0" type="line"/>
      <point x="731" y="765" type="line"/>
      <point x="739" y="773" type="line"/>
      <point x="1449" y="1500" type="line"/>
      <point x="1492" y="1500" type="line"/>
      <point x="757" y="751" type="line"/>
      <point x="749" y="743" type="line"/>
      <point x="23" y="0" type="line"/>
    </contour>
    <contour>
      <point x="1462" y="0" type="line"/>
      <point x="737" y="745" type="line"/>
      <point x="732" y="751" type="line"/>
      <point x="2" y="1500" type="line"/>
      <point x="44" y="1500" type="line"/>
      <point x="754" y="771" type="line"/>
      <point x="759" y="766" type="line"/>
      <point x="1506" y="0" type="line"/>
    </contour>
  </outline>
</glyph>
<glyph name="Y" format="2">
  <advance width="1650"/>
  <unicode hex="0059"/>
  <outline>
    <contour>
      <point x="810" y="0" type="line"/>
      <point x="810" y="513" type="line"/>
      <point x="840" y="513" type="line"/>
      <point x="840" y="0" type="line"/>
    </contour>
    <contour>
      <point x="818" y="500" type="line"/>
      <point x="-40" y="1500" type="line"/>
      <point x="2" y="1500" type="line"/>
      <point x="827" y="534" type="line"/>
      <point x="1652" y="1500" type="line"/>
      <point x="1690" y="1500" type="line"/>
      <point x="836" y="500" type="line"/>
    </contour>
  </outline>
</glyph>
<glyph name="Z" format="2">
  <advance width="1473"/>
  <unicode hex="005A"/>
  <outline>
    <contour>
      <point x="1437" y="0" type="line"/>
      <point x="41" y="0" type="line"/>
      <point x="36" y="30" type="line"/>
      <point x="1373" y="1470" type="line"/>
      <point x="71" y="1470" type="line"/>
      <point x="71" y="1500" type="line"/>
      <point x="1417" y="1500" type="line"/>
      <point x="1417" y="1475" type="line"/>
      <point x="82" y="30" type="line"/>
      <point x="1437" y="30" type="line"/>
    </contour>
  </outline>
</glyph>
<glyph name="bracketleft" format="2">
  <advance width="858"/>
  <unicode hex="005B"/>
  <outline>
    <contour>
      <point x="352" y="-280" type="line"/>
      <point x="352" y="1500" type="line"/>
      <point x="315" y="1500" type="line"/>
      <point x="315" y="-280" type="line"/>
    </contour>
    <contour>
      <point x="846" y="-280" type="line"/>
      <point x="339" y="-280" type="line"/>
      <point x="339" y="-307" type="line"/>
      <point x="846" y="-307" type="line"/>
    </contour>
    <contour>
      <point x="846" y="1527" type="line"/>
      <point x="334" y="1527" type="line"/>
      <point x="334" y="1500" type="line"/>
      <point x="846" y="1500" type="line"/>
    </contour>
  </outline>
</glyph>
<glyph name="backslash" format="2">
  <advance width="892"/>
  <unicode hex="005C"/>
  <outline>
    <contour>
      <point x="962" y="0" type="line"/>
      <point x="966" y="0" type="line"/>
      <point x="-54" y="1500" type="line"/>
      <point x="-58" y="1500" type="line"/>
    </contour>
  </outline>
</glyph>
<glyph name="a" format="2">
  <advance width="1313"/>
  <unicode hex="0061"/>
  <outline>
    <contour>
      <point x="165" y="902.0" type="line"/>
      <point x="208" y="930.0"/>
      <point x="452" y="1014"/>
      <point x="648" y="1014.0" type="qcurve" smooth="yes"/>
      <point x="908" y="1014.0"/>
      <point x="1136.0" y="812.0"/>
      <point x="1136" y="610.0" type="qcurve" smooth="yes"/>
      <point x="1136" y="0.0" type="line"/>
      <point x="1106" y="0.0" type="line"/>
      <point x="1106.0" y="604" type="line" smooth="yes"/>
      <point x="1106.0" y="796.0"/>
      <point x="894.0" y="985"/>
      <point x="647.0" y="985" type="qcurve" smooth="yes"/>
      <point x="464" y="985"/>
      <point x="214.0" y="895"/>
      <point x="177.0" y="872" type="qcurve"/>
    </contour>
    <contour>
      <point x="1125" y="126.0" type="line"/>
      <point x="1093" y="95.0"/>
      <point x="777" y="-25.0"/>
      <point x="592" y="-25.0" type="qcurve" smooth="yes"/>
      <point x="351" y="-25.0"/>
      <point x="74" y="150.0"/>
      <point x="74" y="309" type="qcurve" smooth="yes"/>
      <point x="74" y="469.0"/>
      <point x="343" y="650"/>
      <point x="596" y="650.0" type="qcurve" smooth="yes"/>
      <point x="770" y="650.0"/>
      <point x="1070" y="594.0"/>
      <point x="1118" y="577.0" type="qcurve"/>
      <point x="1118.0" y="554" type="line"/>
      <point x="1077.0" y="566"/>
      <point x="748" y="622"/>
      <point x="604.0" y="622" type="qcurve" smooth="yes"/>
      <point x="351" y="622"/>
      <point x="104" y="451"/>
      <point x="104.0" y="313" type="qcurve" smooth="yes"/>
      <point x="104.0" y="163"/>
      <point x="361" y="3"/>
      <point x="591" y="3.0" type="qcurve" smooth="yes"/>
      <point x="773" y="3"/>
      <point x="1088.0" y="129"/>
      <point x="1125.0" y="157" type="qcurve"/>
    </contour>
  </outline>
</glyph>
<glyph name="b" format="2">
  <advance width="1543"/>
  <unicode hex="0062"/>
  <outline>
    <contour>
      <point x="212" y="0" type="line"/>
      <point x="212" y="1500" type="line"/>
      <point x="178" y="1500" type="line"/>
      <point x="178" y="0" type="line"/>
    </contour>
    <contour>
      <point x="214.0" y="558.0" type="line" smooth="yes"/>
      <point x="214" y="838.0"/>
      <point x="556.0" y="1012.0"/>
      <point x="797" y="1012.0" type="qcurve" smooth="yes"/>
      <point x="813" y="1012.0" type="line" smooth="yes"/>
      <point x="1115.0" y="1012.0"/>
      <point x="1451.0" y="719.0"/>
      <point x="1451.0" y="482.0" type="qcurve" smooth="yes"/>
      <point x="1451.0" y="499.0" type="line" smooth="yes"/>
      <point x="1451.0" y="268.0"/>
      <point x="1110.0" y="-28.0"/>
      <point x="829" y="-28.0" type="qcurve" smooth="yes"/>
      <point x="819.0" y="-28.0" type="line" smooth="yes"/>
      <point x="562.0" y="-28"/>
      <point x="214" y="148.0"/>
      <point x="214" y="428.0" type="qcurve" smooth="yes"/>
    </contour>
    <contour>
      <point x="212.0" y="521" type="qcurve" smooth="yes"/>
      <point x="212.0" y="484" type="line" smooth="yes"/>
      <point x="212" y="214"/>
      <point x="582.0" y="-41"/>
      <point x="835.0" y="-41.0" type="qcurve" smooth="yes"/>
      <point x="853.0" y="-41" type="line" smooth="yes"/>
      <point x="1124.0" y="-41.0"/>
      <point x="1499.0" y="238.0"/>
      <point x="1499.0" y="494" type="qcurve" smooth="yes"/>
      <point x="1499.0" y="491" type="line" smooth="yes"/>
      <point x="1499.0" y="750.0"/>
      <point x="1116.0" y="1031.0"/>
      <point x="845.0" y="1031" type="qcurve" smooth="yes"/>
      <point x="829.0" y="1031.0" type="line" smooth="yes"/>
      <point x="594" y="1031"/>
      <point x="212" y="759.0"/>
    </contour>
  </outline>
</glyph>
<glyph name="c" format="2">
  <advance width="1377"/>
  <unicode hex="0063"/>
  <outline>
    <contour>
      <point x="1351" y="352" type="line"/>
      <point x="1348" y="339" type="line" smooth="yes"/>
      <point x="1315" y="197"/>
      <point x="1045" y="-27"/>
      <point x="752" y="-27" type="qcurve" smooth="yes"/>
      <point x="742" y="-27.0" type="line" smooth="yes"/>
      <point x="440.0" y="-27"/>
      <point x="101" y="254"/>
      <point x="101" y="491" type="qcurve" smooth="yes"/>
      <point x="101" y="503" type="line" smooth="yes"/>
      <point x="101" y="746.0"/>
      <point x="443.0" y="1010"/>
      <point x="733" y="1010.0" type="qcurve" smooth="yes"/>
      <point x="740" y="1010.0" type="line" smooth="yes"/>
      <point x="1027.0" y="1010.0"/>
      <point x="1332" y="798"/>
      <point x="1344" y="625" type="qcurve" smooth="yes"/>
      <point x="1345" y="610" type="line"/>
      <point x="1315" y="610.0" type="line"/>
      <point x="1314" y="623" type="line" smooth="yes"/>
      <point x="1302" y="777"/>
      <point x="1014.0" y="982.0"/>
      <point x="735" y="982.0" type="qcurve" smooth="yes"/>
      <point x="731" y="982.0" type="line" smooth="yes"/>
      <point x="454.0" y="982"/>
      <point x="131" y="733"/>
      <point x="131" y="498" type="qcurve" smooth="yes"/>
      <point x="131" y="492" type="line" smooth="yes"/>
      <point x="131" y="262"/>
      <point x="453" y="-1"/>
      <point x="736" y="-1.0" type="qcurve" smooth="yes"/>
      <point x="749" y="-1" type="line" smooth="yes"/>
      <point x="1022" y="-1.0"/>
      <point x="1282" y="208"/>
      <point x="1317" y="339" type="qcurve" smooth="yes"/>
      <point x="1321" y="354.0" type="line"/>
    </contour>
  </outline>
</glyph>
<glyph name="d" format="2">
  <advance width="1521"/>
  <unicode hex="0064"/>
  <outline>
    <contour>
      <point x="1324" y="0" type="line"/>
      <point x="1294" y="0" type="line"/>
      <point x="1294" y="1500" type="line"/>
      <point x="1324" y="1500" type="line"/>
    </contour>
    <contour>
      <point x="1321.0" y="488.0" type="qcurve" smooth="yes"/>
      <point x="1321" y="473" type="line" smooth="yes"/>
      <point x="1321" y="204"/>
      <point x="985" y="-19"/>
      <point x="712" y="-19" type="qcurve" smooth="yes"/>
      <point x="700" y="-19" type="line" smooth="yes"/>
      <point x="400" y="-19"/>
      <point x="101" y="247"/>
      <point x="101" y="483" type="qcurve" smooth="yes"/>
      <point x="101" y="500" type="line" smooth="yes"/>
      <point x="101" y="750"/>
      <point x="415" y="1012"/>
      <point x="687" y="1012" type="qcurve" smooth="yes"/>
      <point x="702.0" y="1012.0" type="line" smooth="yes"/>
      <point x="957" y="1012"/>
      <point x="1321" y="724"/>
    </contour>
    <contour>
      <point x="1294.0" y="494.0" type="line" smooth="yes"/>
      <point x="1294" y="698"/>
      <point x="951" y="982"/>
      <point x="697.0" y="982.0" type="qcurve" smooth="yes"/>
      <point x="684" y="982" type="line" smooth="yes"/>
      <point x="430" y="982"/>
      <point x="131" y="735"/>
      <point x="131.0" y="495.0" type="qcurve" smooth="yes"/>
      <point x="131.0" y="484.0" type="line" smooth="yes"/>
      <point x="131" y="261"/>
      <point x="409" y="9"/>
      <point x="705" y="9" type="qcurve" smooth="yes"/>
      <point x="709.0" y="9.0" type="line" smooth="yes"/>
      <point x="968" y="9"/>
      <point x="1294" y="224"/>
      <point x="1294.0" y="461.0" type="qcurve" smooth="yes"/>
    </contour>
  </outline>
</glyph>
<glyph name="e" format="2">
  <advance width="1398"/>
  <unicode hex="0065"/>
  <outline>
    <contour>
      <point x="1311" y="319" type="line"/>
      <point x="1308" y="296.0" type="line" smooth="yes"/>
      <point x="1291" y="157.0"/>
      <point x="994" y="-27.0"/>
      <point x="733" y="-27.0" type="qcurve" smooth="yes"/>
      <point x="722" y="-27.0" type="line" smooth="yes"/>
      <point x="442.0" y="-27"/>
      <point x="102" y="262.0"/>
      <point x="102" y="490.0" type="qcurve" smooth="yes"/>
      <point x="102" y="497.0" type="line" smooth="yes"/>
      <point x="102" y="739.0"/>
      <point x="459" y="1010.0"/>
      <point x="709" y="1010.0" type="qcurve" smooth="yes"/>
      <point x="728" y="1010.0" type="line" smooth="yes"/>
      <point x="990" y="1010.0"/>
      <point x="1306" y="751.0"/>
      <point x="1322" y="539.0" type="qcurve" smooth="yes"/>
      <point x="1323" y="513" type="line"/>
      <point x="116" y="513" type="line"/>
      <point x="116" y="543" type="line"/>
      <point x="1292" y="543.0" type="line"/>
      <point x="1290.0" y="564" type="line" smooth="yes"/>
      <point x="1273" y="738"/>
      <point x="973.0" y="982"/>
      <point x="718.0" y="982" type="qcurve" smooth="yes"/>
      <point x="708.0" y="982" type="line" smooth="yes"/>
      <point x="461.0" y="982"/>
      <point x="130.0" y="735"/>
      <point x="130.0" y="501" type="qcurve" smooth="yes"/>
      <point x="130.0" y="492" type="line" smooth="yes"/>
      <point x="130.0" y="269"/>
      <point x="446.0" y="-3"/>
      <point x="707.0" y="-3" type="qcurve" smooth="yes"/>
      <point x="733.0" y="-3" type="line" smooth="yes"/>
      <point x="977.0" y="-3"/>
      <point x="1241.0" y="142"/>
      <point x="1281.0" y="269" type="qcurve" smooth="yes"/>
      <point x="1288" y="319.0" type="line"/>
    </contour>
  </outline>
</glyph>
<glyph name="f" format="2">
  <advance width="848"/>
  <unicode hex="0066"/>
  <outline>
    <contour>
      <point x="787" y="950" type="line"/>
      <point x="37" y="950" type="line"/>
      <point x="37" y="980" type="line"/>
      <point x="787" y="980" type="line"/>
    </contour>
    <contour>
      <point x="391" y="1277" type="qcurve" smooth="yes"/>
      <point x="391" y="0" type="line"/>
      <point x="361" y="0" type="line"/>
      <point x="361" y="1281" type="line" smooth="yes"/>
      <point x="361.0" y="1416.0"/>
      <point x="513" y="1553"/>
      <point x="621" y="1553.0" type="qcurve" smooth="yes"/>
      <point x="690" y="1553.0"/>
      <point x="800.0" y="1535.0"/>
      <point x="827" y="1526" type="qcurve"/>
      <point x="827" y="1489" type="line"/>
      <point x="806.0" y="1498.0"/>
      <point x="685" y="1522"/>
      <point x="620" y="1522" type="qcurve" smooth="yes"/>
      <point x="525" y="1522"/>
      <point x="391.0" y="1398.0"/>
    </contour>
  </outline>
</glyph>
<glyph name="g" format="2">
  <advance width="1528"/>
  <unicode hex="0067"/>
  <outline>
    <contour>
      <point x="1316" y="492" type="qcurve" smooth="yes"/>
      <point x="1316" y="477" type="line" smooth="yes"/>
      <point x="1316.0" y="185.0"/>
      <point x="960" y="-37"/>
      <point x="713" y="-37" type="qcurve" smooth="yes"/>
      <point x="703" y="-37" type="line" smooth="yes"/>
      <point x="387" y="-37"/>
      <point x="76" y="244.0"/>
      <point x="76" y="498" type="qcurve" smooth="yes"/>
      <point x="76" y="501" type="line" smooth="yes"/>
      <point x="76" y="722"/>
      <point x="417" y="1012"/>
      <point x="700" y="1012" type="qcurve" smooth="yes"/>
      <point x="711" y="1012" type="line" smooth="yes"/>
      <point x="961.0" y="1012.0"/>
      <point x="1316.0" y="831.0"/>
    </contour>
    <contour>
      <point x="1318.0" y="503.0" type="line" smooth="yes"/>
      <point x="1318.0" y="764.0"/>
      <point x="947" y="1031.0"/>
      <point x="692.0" y="1031.0" type="qcurve" smooth="yes"/>
      <point x="678.0" y="1031.0" type="line" smooth="yes"/>
      <point x="401" y="1031.0"/>
      <point x="29.0" y="756.0"/>
      <point x="29.0" y="508.0" type="qcurve" smooth="yes"/>
      <point x="29.0" y="493.0" type="line" smooth="yes"/>
      <point x="29.0" y="222.0"/>
      <point x="401" y="-52.0"/>
      <point x="666.0" y="-52.0" type="qcurve" smooth="yes"/>
      <point x="680.0" y="-52.0" type="line" smooth="yes"/>
      <point x="936" y="-52.0"/>
      <point x="1318.0" y="189.0"/>
      <point x="1318.0" y="468.0" type="qcurve" smooth="yes"/>
    </contour>
    <contour>
      <point x="393" y="-530.0" type="line"/>
      <point x="391" y="-526.0"/>
      <point x="551" y="-543.0"/>
      <point x="610" y="-543.0" type="qcurve" smooth="yes"/>
      <point x="947.0" y="-543.0"/>
      <point x="1356.0" y="-243.0"/>
      <point x="1356.0" y="36.0" type="qcurve" smooth="yes"/>
      <point x="1356.0" y="1000.0" type="line"/>
      <point x="1316.0" y="1000.0" type="line"/>
      <point x="1316.0" y="84.0" type="line" smooth="yes"/>
      <point x="1316.0" y="-249.0"/>
      <point x="928" y="-503.0"/>
      <point x="615" y="-503" type="qcurve" smooth="yes"/>
      <point x="506" y="-503.0"/>
      <point x="393" y="-492.0"/>
      <point x="384" y="-493.0" type="qcurve"/>
    </contour>
  </outline>
</glyph>
<glyph name="i" format="2">
  <advance width="679"/>
  <unicode hex="0069"/>
  <outline>
    <contour>
      <point x="394.0" y="0.0" type="line"/>
      <point x="394.0" y="980.0" type="line"/>
      <point x="364.0" y="980.0" type="line"/>
      <point x="364.0" y="0.0" type="line"/>
    </contour>
    <contour>
      <point x="369.0" y="1323" type="line" smooth="yes"/>
      <point x="389.0" y="1323"/>
      <point x="406.0" y="1340"/>
      <point x="406.0" y="1359" type="qcurve" smooth="yes"/>
      <point x="406.0" y="1361" type="line" smooth="yes"/>
      <point x="406.0" y="1379"/>
      <point x="389.0" y="1400"/>
      <point x="369.0" y="1400" type="qcurve" smooth="yes"/>
      <point x="366.0" y="1400" type="line" smooth="yes"/>
      <point x="344.0" y="1400"/>
      <point x="326.0" y="1379"/>
      <point x="326.0" y="1361" type="qcurve" smooth="yes"/>
      <point x="326.0" y="1359" type="line" smooth="yes"/>
      <point x="326.0" y="1344"/>
      <point x="348.0" y="1323"/>
      <point x="366.0" y="1323" type="qcurve" smooth="yes"/>
    </contour>
    <contour>
      <point x="365" y="950" type="line"/>
      <point x="111" y="930" type="line"/>
      <point x="111" y="960" type="line"/>
      <point x="365" y="980" type="line"/>
    </contour>
  </outline>
</glyph>
<glyph name="j" format="2">
  <advance width="690"/>
  <unicode hex="006A"/>
  <outline>
    <contour>
      <point x="391.0" y="-29.0" type="line" smooth="yes"/>
      <point x="391.0" y="-251.0"/>
      <point x="185" y="-463"/>
      <point x="10" y="-463" type="qcurve"/>
      <point x="-65" y="-463"/>
      <point x="-154" y="-449"/>
      <point x="-183" y="-432" type="qcurve"/>
      <point x="-194" y="-469" type="line"/>
      <point x="-165" y="-475"/>
      <point x="-59" y="-492"/>
      <point x="9" y="-492.0" type="qcurve" smooth="yes"/>
      <point x="203" y="-492"/>
      <point x="421.0" y="-259.0"/>
      <point x="421.0" y="4.0" type="qcurve" smooth="yes"/>
      <point x="421.0" y="980.0" type="line"/>
      <point x="391.0" y="980.0" type="line"/>
    </contour>
    <contour>
      <point x="403" y="951" type="line"/>
      <point x="143" y="931" type="line"/>
      <point x="143" y="960" type="line"/>
      <point x="403" y="980" type="line"/>
    </contour>
    <contour>
      <point x="409.0" y="1323" type="line" smooth="yes"/>
      <point x="429.0" y="1323"/>
      <point x="446.0" y="1340"/>
      <point x="446.0" y="1359" type="qcurve" smooth="yes"/>
      <point x="446.0" y="1361" type="line" smooth="yes"/>
      <point x="446.0" y="1379"/>
      <point x="429.0" y="1400"/>
      <point x="409.0" y="1400" type="qcurve" smooth="yes"/>
      <point x="406.0" y="1400" type="line" smooth="yes"/>
      <point x="384.0" y="1400"/>
      <point x="366.0" y="1379"/>
      <point x="366.0" y="1361" type="qcurve" smooth="yes"/>
      <point x="366.0" y="1359" type="line" smooth="yes"/>
      <point x="366.0" y="1344"/>
      <point x="388.0" y="1323"/>
      <point x="406.0" y="1323" type="qcurve" smooth="yes"/>
    </contour>
  </outline>
</glyph>
<glyph name="k" format="2">
  <advance width="1246"/>
  <unicode hex="006B"/>
  <outline>
    <contour>
      <point x="189" y="0" type="line"/>
      <point x="189" y="1500" type="line"/>
      <point x="155" y="1500" type="line"/>
      <point x="155" y="0" type="line"/>
    </contour>
    <contour>
      <point x="712" y="677" type="line"/>
      <point x="137" y="217" type="line"/>
      <point x="137" y="222" type="line"/>
      <point x="539.0" y="525.0" type="line"/>
      <point x="1210" y="980" type="line"/>
      <point x="1201" y="980" type="line"/>
      <point x="700" y="652" type="line"/>
    </contour>
    <contour>
      <point x="690" y="625" type="line"/>
      <point x="1229" y="0" type="line"/>
      <point x="1249" y="0" type="line"/>
      <point x="719" y="648" type="line"/>
    </contour>
  </outline>
</glyph>
<glyph name="l" format="2">
  <advance width="314"/>
  <unicode hex="006C"/>
  <outline>
    <contour>
      <point x="218" y="-141" type="qcurve" smooth="yes"/>
      <point x="218" y="1500" type="line"/>
      <point x="185" y="1500" type="line"/>
      <point x="205" y="0" type="line"/>
      <point x="114" y="-4"/>
      <point x="218.0" y="-123.0"/>
    </contour>
    <contour>
      <point x="186" y="51" type="line"/>
      <point x="168" y="0" type="line"/>
      <point x="115" y="-45" type="line"/>
      <point x="183" y="-20" type="line"/>
    </contour>
  </outline>
</glyph>
<glyph name="m" format="2">
  <advance width="2073"/>
  <unicode hex="006D"/>
  <outline>
    <contour>
      <point x="197.0" y="0.0" type="line"/>
      <point x="197.0" y="980.0" type="line"/>
      <point x="227.0" y="980.0" type="line"/>
      <point x="227.0" y="0.0" type="line"/>
    </contour>
    <contour>
      <point x="213" y="784.0" type="line"/>
      <point x="259.0" y="853.0"/>
      <point x="490" y="1009"/>
      <point x="669" y="1009.0" type="qcurve" smooth="yes"/>
      <point x="856" y="1009"/>
      <point x="1061" y="796"/>
      <point x="1061.0" y="585" type="qcurve" smooth="yes"/>
      <point x="1061" y="0.0" type="line"/>
      <point x="1031" y="0" type="line"/>
      <point x="1031.0" y="571" type="line" smooth="yes"/>
      <point x="1031" y="775"/>
      <point x="844" y="981"/>
      <point x="669" y="981.0" type="qcurve" smooth="yes"/>
      <point x="497" y="981.0"/>
      <point x="268" y="821"/>
      <point x="219" y="757" type="qcurve"/>
    </contour>
    <contour>
      <point x="1014" y="784.0" type="line"/>
      <point x="1058" y="857.0"/>
      <point x="1309" y="1009.0"/>
      <point x="1476" y="1009.0" type="qcurve" smooth="yes"/>
      <point x="1651" y="1009"/>
      <point x="1896" y="796.0"/>
      <point x="1896" y="585.0" type="qcurve" smooth="yes"/>
      <point x="1896" y="0.0" type="line"/>
      <point x="1866" y="0" type="line"/>
      <point x="1866" y="571.0" type="line" smooth="yes"/>
      <point x="1866" y="775.0"/>
      <point x="1640" y="981.0"/>
      <point x="1483" y="981.0" type="qcurve" smooth="yes"/>
      <point x="1314" y="981.0"/>
      <point x="1072" y="821.0"/>
      <point x="1028" y="757.0" type="qcurve"/>
    </contour>
  </outline>
</glyph>
<glyph name="n" format="2">
  <advance width="1364"/>
  <unicode hex="006E"/>
  <outline>
    <contour>
      <point x="232.0" y="0.0" type="line"/>
      <point x="232.0" y="980.0" type="line"/>
      <point x="198.0" y="980.0" type="line"/>
      <point x="198.0" y="0.0" type="line"/>
    </contour>
    <contour>
      <point x="217" y="805" type="line"/>
      <point x="232" y="867"/>
      <point x="536" y="1012"/>
      <point x="724" y="1012" type="qcurve" smooth="yes"/>
      <point x="932" y="1012"/>
      <point x="1149" y="781"/>
      <point x="1152.0" y="577" type="qcurve" smooth="yes"/>
      <point x="1151" y="0" type="line"/>
      <point x="1185" y="0.0" type="line"/>
      <point x="1185.0" y="618" type="line" smooth="yes"/>
      <point x="1185" y="841"/>
      <point x="911" y="1042"/>
      <point x="705.0" y="1042" type="qcurve" smooth="yes"/>
      <point x="564" y="1042"/>
      <point x="265" y="925.0"/>
      <point x="207" y="819.0" type="qcurve"/>
    </contour>
  </outline>
</glyph>
<glyph name="o" format="2">
  <advance width="1482"/>
  <unicode hex="006F"/>
  <outline>
    <contour>
      <point x="728.0" y="-8" type="line" smooth="yes"/>
      <point x="423.0" y="-8"/>
      <point x="105" y="276"/>
      <point x="105.0" y="509.0" type="qcurve" smooth="yes"/>
      <point x="105.0" y="517.0" type="line" smooth="yes"/>
      <point x="105" y="757"/>
      <point x="428.0" y="999"/>
      <point x="724.0" y="999" type="qcurve" smooth="yes"/>
      <point x="730.0" y="999" type="line" smooth="yes"/>
      <point x="1045.0" y="999"/>
      <point x="1365" y="753"/>
      <point x="1365.0" y="514.0" type="qcurve" smooth="yes"/>
      <point x="1365.0" y="501.0" type="line" smooth="yes"/>
      <point x="1365" y="261"/>
      <point x="1041.0" y="-8"/>
      <point x="734.0" y="-8" type="qcurve" smooth="yes"/>
    </contour>
    <contour>
      <point x="734" y="-34.0" type="line" smooth="yes"/>
      <point x="1037.0" y="-34.0"/>
      <point x="1408" y="265"/>
      <point x="1408.0" y="498" type="qcurve" smooth="yes"/>
      <point x="1408.0" y="513" type="line" smooth="yes"/>
      <point x="1408" y="748"/>
      <point x="1049" y="1027.0"/>
      <point x="734" y="1027.0" type="qcurve" smooth="yes"/>
      <point x="727" y="1027.0" type="line" smooth="yes"/>
      <point x="413.0" y="1027.0"/>
      <point x="74" y="757"/>
      <point x="74.0" y="514" type="qcurve" smooth="yes"/>
      <point x="74.0" y="500" type="line" smooth="yes"/>
      <point x="74" y="266"/>
      <point x="424.0" y="-34.0"/>
      <point x="727" y="-34.0" type="qcurve" smooth="yes"/>
    </contour>
  </outline>
</glyph>
<glyph name="p" format="2">
  <advance width="1521"/>
  <unicode hex="0070"/>
  <outline>
    <contour>
      <point x="197" y="-500" type="line"/>
      <point x="197" y="980" type="line"/>
      <point x="227" y="980" type="line"/>
      <point x="227" y="-500" type="line"/>
    </contour>
    <contour>
      <point x="200.0" y="508" type="line" smooth="yes"/>
      <point x="200" y="744.0"/>
      <point x="564" y="1012"/>
      <point x="819" y="1012.0" type="qcurve" smooth="yes"/>
      <point x="834" y="1012" type="line" smooth="yes"/>
      <point x="1106" y="1012"/>
      <point x="1420" y="750"/>
      <point x="1420" y="500" type="qcurve" smooth="yes"/>
      <point x="1420" y="483" type="line" smooth="yes"/>
      <point x="1420" y="247"/>
      <point x="1121" y="-19"/>
      <point x="821" y="-19" type="qcurve" smooth="yes"/>
      <point x="809" y="-19" type="line" smooth="yes"/>
      <point x="536" y="-19"/>
      <point x="200" y="224.0"/>
      <point x="200" y="493" type="qcurve" smooth="yes"/>
    </contour>
    <contour>
      <point x="227.0" y="514" type="qcurve" smooth="yes"/>
      <point x="227.0" y="481" type="line" smooth="yes"/>
      <point x="227" y="244"/>
      <point x="553" y="9"/>
      <point x="812" y="9.0" type="qcurve" smooth="yes"/>
      <point x="816" y="9" type="line" smooth="yes"/>
      <point x="1112" y="9"/>
      <point x="1390" y="261"/>
      <point x="1390.0" y="484" type="qcurve" smooth="yes"/>
      <point x="1390.0" y="495" type="line" smooth="yes"/>
      <point x="1390" y="735"/>
      <point x="1091" y="982"/>
      <point x="837" y="982" type="qcurve" smooth="yes"/>
      <point x="824" y="982.0" type="line" smooth="yes"/>
      <point x="570" y="982"/>
      <point x="227" y="718.0"/>
    </contour>
  </outline>
</glyph>
<glyph name="r" format="2">
  <advance width="1015"/>
  <unicode hex="0072"/>
  <outline>
    <contour>
      <point x="197" y="0" type="line"/>
      <point x="197" y="979" type="line"/>
      <point x="227" y="979" type="line"/>
      <point x="227" y="0" type="line"/>
    </contour>
    <contour>
      <point x="207" y="789" type="line"/>
      <point x="296" y="883"/>
      <point x="567" y="1009"/>
      <point x="716" y="1009.0" type="qcurve" smooth="yes"/>
      <point x="830" y="1009.0"/>
      <point x="966" y="973"/>
      <point x="1005" y="952" type="qcurve"/>
      <point x="1005" y="920" type="line"/>
      <point x="965" y="942"/>
      <point x="826" y="981"/>
      <point x="721" y="981.0" type="qcurve" smooth="yes"/>
      <point x="572" y="981.0"/>
      <point x="305" y="855"/>
      <point x="214" y="761" type="qcurve"/>
    </contour>
  </outline>
</glyph>
<glyph name="s" format="2">
  <advance width="1325"/>
  <unicode hex="0073"/>
  <outline>
    <contour>
      <point x="1238" y="285.0" type="line" smooth="yes"/>
      <point x="1238.0" y="387.0"/>
      <point x="1032" y="490"/>
      <point x="667" y="507" type="qcurve" smooth="yes"/>
      <point x="298" y="524"/>
      <point x="109.0" y="643"/>
      <point x="109" y="748" type="qcurve" smooth="yes"/>
      <point x="109" y="760" type="line" smooth="yes"/>
      <point x="109.0" y="871.0"/>
      <point x="377" y="1010"/>
      <point x="659.0" y="1010" type="qcurve" smooth="yes"/>
      <point x="672.0" y="1010" type="line" smooth="yes"/>
      <point x="936" y="1010"/>
      <point x="1196" y="867"/>
      <point x="1208.0" y="724" type="qcurve" smooth="yes"/>
      <point x="1210.0" y="701" type="line"/>
      <point x="1180" y="701.0" type="line"/>
      <point x="1178" y="721.0" type="line" smooth="yes"/>
      <point x="1165" y="854"/>
      <point x="927" y="982"/>
      <point x="667" y="982.0" type="qcurve" smooth="yes"/>
      <point x="663" y="982.0" type="line" smooth="yes"/>
      <point x="386.0" y="982"/>
      <point x="139" y="860"/>
      <point x="139.0" y="758" type="qcurve" smooth="yes"/>
      <point x="139.0" y="751" type="line" smooth="yes"/>
      <point x="139.0" y="654"/>
      <point x="312.0" y="553"/>
      <point x="671.0" y="536" type="qcurve" smooth="yes"/>
      <point x="1049.0" y="517"/>
      <point x="1268.0" y="399.0"/>
      <point x="1268.0" y="286" type="qcurve" smooth="yes"/>
      <point x="1268.0" y="278.0" type="line" smooth="yes"/>
      <point x="1268.0" y="154.0"/>
      <point x="968.0" y="-26.0"/>
      <point x="678" y="-26.0" type="qcurve" smooth="yes"/>
      <point x="662" y="-26.0" type="line" smooth="yes"/>
      <point x="368.0" y="-26"/>
      <point x="94" y="130.0"/>
      <point x="77" y="259.0" type="qcurve" smooth="yes"/>
      <point x="73.0" y="282" type="line"/>
      <point x="102.0" y="282.0" type="line"/>
      <point x="105" y="260.0" type="line" smooth="yes"/>
      <point x="121" y="146"/>
      <point x="384.0" y="-3"/>
      <point x="662" y="-3.0" type="qcurve" smooth="yes"/>
      <point x="679.0" y="-3" type="line" smooth="yes"/>
      <point x="954.0" y="-3.0"/>
      <point x="1238.0" y="165.0"/>
      <point x="1238" y="272.0" type="qcurve" smooth="yes"/>
    </contour>
  </outline>
</glyph>
<glyph name="t" format="2">
  <advance width="898"/>
  <unicode hex="0074"/>
  <outline>
    <contour>
      <point x="810" y="950" type="line"/>
      <point x="46" y="950" type="line"/>
      <point x="46" y="980" type="line"/>
      <point x="810" y="980" type="line"/>
    </contour>
    <contour>
      <point x="357.0" y="322" type="line" smooth="yes"/>
      <point x="357.0" y="160.0"/>
      <point x="535" y="12"/>
      <point x="635" y="12.0" type="qcurve" smooth="yes"/>
      <point x="704" y="12"/>
      <point x="817.0" y="53"/>
      <point x="831.0" y="67" type="qcurve"/>
      <point x="854.0" y="40" type="line"/>
      <point x="837.0" y="24"/>
      <point x="711" y="-16"/>
      <point x="634" y="-16" type="qcurve" smooth="yes"/>
      <point x="511.0" y="-16"/>
      <point x="327.0" y="148.0"/>
      <point x="327.0" y="310" type="qcurve" smooth="yes"/>
      <point x="327" y="1233" type="line"/>
      <point x="357" y="1233" type="line"/>
    </contour>
  </outline>
</glyph>
<glyph name="u" format="2">
  <advance width="1364"/>
  <unicode hex="0075"/>
  <outline>
    <contour>
      <point x="1167.0" y="980.0" type="line"/>
      <point x="1167.0" y="0.0" type="line"/>
      <point x="1137.0" y="0.0" type="line"/>
      <point x="1137.0" y="980.0" type="line"/>
    </contour>
    <contour>
      <point x="1151.0" y="196.0" type="line"/>
      <point x="1097.0" y="127.0"/>
      <point x="838.0" y="-29.0"/>
      <point x="654.0" y="-29.0" type="qcurve" smooth="yes"/>
      <point x="448.0" y="-29.0"/>
      <point x="177.0" y="184.0"/>
      <point x="177.0" y="395.0" type="qcurve" smooth="yes"/>
      <point x="177.0" y="980.0" type="line"/>
      <point x="207.0" y="980.0" type="line"/>
      <point x="207.0" y="409.0" type="line" smooth="yes"/>
      <point x="207.0" y="205.0"/>
      <point x="460.0" y="-1.0"/>
      <point x="653.0" y="-1.0" type="qcurve" smooth="yes"/>
      <point x="825.0" y="-1.0"/>
      <point x="1096.0" y="159.0"/>
      <point x="1145.0" y="223.0" type="qcurve"/>
    </contour>
  </outline>
</glyph>
<glyph name="v" format="2">
  <advance width="1260"/>
  <unicode hex="0076"/>
  <outline>
    <contour>
      <point x="594" y="0" type="line"/>
      <point x="-10" y="980" type="line"/>
      <point x="-36.0" y="980.0" type="line"/>
      <point x="598.0" y="-90" type="line"/>
      <point x="1217.0" y="980.0" type="line"/>
      <point x="1206" y="980" type="line"/>
      <point x="600" y="0" type="line"/>
    </contour>
  </outline>
</glyph>
<glyph name="w" format="2">
  <advance width="1815"/>
  <unicode hex="0077"/>
  <outline>
    <contour>
      <point x="463" y="0" type="line"/>
      <point x="10" y="980" type="line"/>
      <point x="44" y="980" type="line"/>
      <point x="472" y="45" type="line"/>
      <point x="894" y="980" type="line"/>
      <point x="920" y="980" type="line"/>
      <point x="1346" y="42" type="line"/>
      <point x="1773" y="980" type="line"/>
      <point x="1805" y="980" type="line"/>
      <point x="1355" y="0" type="line"/>
      <point x="1335" y="0" type="line"/>
      <point x="905" y="943" type="line"/>
      <point x="483" y="0" type="line"/>
    </contour>
  </outline>
</glyph>
<glyph name="x" format="2">
  <advance width="1249"/>
  <unicode hex="0078"/>
  <outline>
    <contour>
      <point x="-15" y="0" type="line"/>
      <point x="1143" y="980" type="line"/>
      <point x="1185" y="980" type="line"/>
      <point x="27" y="0" type="line"/>
    </contour>
    <contour>
      <point x="1215" y="0" type="line"/>
      <point x="36" y="980" type="line"/>
      <point x="84" y="980" type="line"/>
      <point x="1264" y="0" type="line"/>
    </contour>
  </outline>
</glyph>
<glyph name="y" format="2">
  <advance width="1206"/>
  <unicode hex="0079"/>
  <outline>
    <contour>
      <point x="561" y="4" type="qcurve"/>
      <point x="-69" y="980" type="line"/>
      <point x="-33" y="980" type="line"/>
      <point x="579" y="34" type="line"/>
      <point x="1187" y="980" type="line"/>
      <point x="1221" y="980" type="line"/>
      <point x="594" y="1" type="line" smooth="yes"/>
      <point x="462" y="-205"/>
      <point x="213" y="-500.0"/>
      <point x="113" y="-500.0" type="qcurve" smooth="yes"/>
      <point x="49" y="-500"/>
      <point x="-42" y="-486"/>
      <point x="-64" y="-473" type="qcurve"/>
      <point x="-52" y="-441" type="line"/>
      <point x="-35" y="-448"/>
      <point x="64" y="-470"/>
      <point x="113" y="-470.0" type="qcurve" smooth="yes"/>
      <point x="202" y="-470"/>
      <point x="446" y="-179"/>
    </contour>
  </outline>
</glyph>
<glyph name="z" format="2">
  <advance width="1215"/>
  <unicode hex="007A"/>
  <outline>
    <contour>
      <point x="1176" y="0" type="line"/>
      <point x="76" y="0" type="line"/>
      <point x="71" y="30" type="line"/>
      <point x="1113" y="950" type="line"/>
      <point x="94" y="950" type="line"/>
      <point x="94" y="980" type="line"/>
      <point x="1156" y="980" type="line"/>
      <point x="1156" y="950" type="line"/>
      <point x="116" y="30" type="line"/>
      <point x="1176" y="30" type="line"/>
    </contour>
  </outline>
</glyph>
<glyph name="braceleft" format="2">
  <advance width="858"/>
  <unicode hex="007B"/>
  <outline>
    <contour>
      <point x="82" y="615" type="line"/>
      <point x="336" y="611"/>
      <point x="423" y="535"/>
      <point x="423.0" y="462.0" type="qcurve" smooth="yes"/>
      <point x="423" y="423"/>
      <point x="371" y="319"/>
      <point x="338" y="277" type="qcurve" smooth="yes"/>
      <point x="301" y="228"/>
      <point x="236" y="105"/>
      <point x="236.0" y="0.0" type="qcurve" smooth="yes"/>
      <point x="236" y="-132"/>
      <point x="583" y="-325"/>
      <point x="880" y="-305" type="qcurve"/>
      <point x="681.0" y="-229" type="line"/>
      <point x="413.0" y="-239"/>
      <point x="198.0" y="-48"/>
      <point x="198.0" y="-8.0" type="qcurve" smooth="yes"/>
      <point x="198" y="91"/>
      <point x="223" y="185"/>
      <point x="263" y="240.0" type="qcurve" smooth="yes"/>
      <point x="305" y="293.0"/>
      <point x="402" y="404"/>
      <point x="402.0" y="512.0" type="qcurve" smooth="yes"/>
      <point x="402" y="526.0"/>
      <point x="307" y="592.0"/>
      <point x="249" y="601.0" type="qcurve"/>
      <point x="322" y="621.0"/>
      <point x="407" y="706.0"/>
      <point x="407.0" y="722" type="qcurve" smooth="yes"/>
      <point x="407" y="816.0"/>
      <point x="316" y="930.0"/>
      <point x="275" y="979.0" type="qcurve" smooth="yes"/>
      <point x="236" y="1025"/>
      <point x="204" y="1129"/>
      <point x="204.0" y="1215.0" type="qcurve" smooth="yes"/>
      <point x="204" y="1259"/>
      <point x="429" y="1444"/>
      <point x="685" y="1447" type="qcurve"/>
      <point x="880" y="1526" type="line"/>
      <point x="594" y="1517"/>
      <point x="240" y="1350"/>
      <point x="240.0" y="1218.0" type="qcurve" smooth="yes"/>
      <point x="240" y="1127"/>
      <point x="313" y="991"/>
      <point x="347" y="949" type="qcurve" smooth="yes"/>
      <point x="381" y="907"/>
      <point x="429" y="807"/>
      <point x="429.0" y="756" type="qcurve" smooth="yes"/>
      <point x="429.0" y="682"/>
      <point x="318" y="601"/>
      <point x="82" y="586" type="qcurve"/>
    </contour>
  </outline>
</glyph>
